# xmcd
#
# Track frame offsets: 
#        150
#        8491
#        22053
#        34526
#        51894
#        60655
#        78155
#        90456
#        99442
#        112582
#        130282
#
# Disc length: 1909 seconds
#
# Revision: 0
# Processed by: cddbd v1.5.2PL0 Copyright (c) Steve Scherf et al.
# Submitted via: ExactAudioCopy v0.99pb5
#
DISCID=7407730b
DTITLE=Ashley Raines and The New West Revue - One Trick Mule
DYEAR=2012
DGENRE=Blues
TTITLE0=All Hells Let Loose
TTITLE1=It Is What It Is
TTITLE2=Love Me Like You're Told
TTITLE3=I Blow My Brains Out Everynight
TTITLE4=If I Had A Gun
TTITLE5=Cross That Bridge
TTITLE6=The Decency To Die
TTITLE7=Dead Horse
TTITLE8=Mans Gotta Do
TTITLE9=Dead In The Water
TTITLE10=Crop Don't Rise
EXTD=
EXTT0=
EXTT1=
EXTT2=
EXTT3=
EXTT4=
EXTT5=
EXTT6=
EXTT7=
EXTT8=
EXTT9=
EXTT10=
PLAYORDER=
